<svg id="Layer_1" data-name="Layer 1" xmlns="http://www.w3.org/2000/svg" viewBox="0 0 167.65 50"><defs><style>.cls-1,.cls-12{fill:#7c3301;}.cls-2{fill:#efe9df;}.cls-3{fill:#efe9de;}.cls-4{fill:#f9bc00;}.cls-5{fill:#fabd00;}.cls-6{fill:#ee8200;}.cls-7{fill:#e64129;}.cls-8{fill:#a7b700;}.cls-9{fill:#a05b00;}.cls-10{fill:#803800;}.cls-11{fill:#823a00;}.cls-12{font-size:9.52px;font-family:MuseoSansCyrl-500, Museo Sans Cyrl;}.cls-13{letter-spacing:-0.01em;}.cls-14{letter-spacing:-0.02em;}</style></defs><title>logo</title><path class="cls-1" d="M41.12,13.12A17.5,17.5,0,1,1,11.3,28.37a17.41,17.41,0,0,1,14-20.31,17.1,17.1,0,0,1,13.95,3.38.59.59,0,0,0,.74.05A27.56,27.56,0,0,1,44.26,9.8c.29-.09.41,0,.48.26.16.72.33,1.43.54,2.14.1.33,0,.36-.29.35A11.74,11.74,0,0,0,41.12,13.12ZM25.82,29.88l0,0c0,.21,0,.43-.09.64-.19,1.07-.35,2.14-.45,3.22,0,.33.1.45.4.57.5.2.87-.14,1.29-.23a1.49,1.49,0,0,0,1.27-1.37,6.11,6.11,0,0,1,.82-2.14.55.55,0,0,1,0,.4c-.12.64-.24,1.28-.34,1.92,0,.19-.11.52.3.32A18.51,18.51,0,0,0,33,30.74c.3-.25.13-.38-.09-.52-.76-.51-1.53-1-2.34-1.46a16.15,16.15,0,0,0-5.05-2c-1.49-.24-2.3-.12-3.11,1.5a10.81,10.81,0,0,0-.73,2,2.26,2.26,0,0,0,.92,2.59,8.72,8.72,0,0,0,1.47.86c.33.16.52.19.61-.29A11.65,11.65,0,0,1,25.82,29.88Zm8,4.2.06.07a21.84,21.84,0,0,1-6.32,2.49,12.22,12.22,0,0,1-2.23.24,10.6,10.6,0,0,0,11.92-2.05c3.43-3.33,3.78-8.13,2.78-10.09l-.06.2a12.93,12.93,0,0,1-2.28,4.49l-.07-.08A15.9,15.9,0,0,0,39.05,25a26.72,26.72,0,0,1-5.37,6.63,25,25,0,0,1-7.54,4,14.13,14.13,0,0,0,3.6-.32A23.43,23.43,0,0,0,33.84,34.08Zm4.21-21.52c-.13-.1-.23-.19-.34-.27A15.27,15.27,0,0,0,27,9.43a15.47,15.47,0,0,0-12.87,9A15.37,15.37,0,0,0,13.1,29.23c.05.21,0,.47.41.46.7,0,1.41,0,2.11,0a.4.4,0,0,0,.41-.28c.11-.23-.1-.26-.2-.33a4.37,4.37,0,0,1-1.22-1.31,1.67,1.67,0,0,1,1-2.59A3.72,3.72,0,0,1,17.31,25c.26,0,.41,0,.49-.31a4.32,4.32,0,0,1,2-2.45c.2-.14.24,0,.31.13a3.43,3.43,0,0,0,.45.87.66.66,0,0,0,.08-.11,8.22,8.22,0,0,1,11.35-5c.29.14.37,0,.5-.19a16.68,16.68,0,0,1,3.38-3.76C36.53,13.62,37.29,13.1,38.06,12.56Zm6.37,12.67a16.07,16.07,0,0,0-4.61-11.17.55.55,0,0,0-.78-.12,15.7,15.7,0,0,0-5.51,4.73c-.23.31-.08.42.13.58a8.07,8.07,0,0,1,2.66,4c.05.17.07.35.27.46a4,4,0,0,1,1,.85c.16.18.25.15.37,0a4.83,4.83,0,0,1,.88-1.09,1.19,1.19,0,0,1,1.85.15,3.13,3.13,0,0,1,.58,1.16,10.07,10.07,0,0,1,.06,5c-.06.26,0,.33.24.33.55,0,1.11,0,1.66,0,.31,0,.43-.08.51-.37A17.74,17.74,0,0,0,44.43,25.23Zm-9.56-2.17-.12-.31a6.93,6.93,0,0,0-13.1,1.46,2.14,2.14,0,0,0,.4,2c.14.17.21.28.42.09A3.33,3.33,0,0,1,25,25.54a10.86,10.86,0,0,1,3.84,1.08c.35.15.46.13.58-.25a4.69,4.69,0,0,1,2.06-2.63A5,5,0,0,1,34.87,23.06Zm-4.52,4c0,.26.12.36.31.46a22.23,22.23,0,0,1,3.11,1.93c.31.23.47.16.7-.09A25.23,25.23,0,0,0,37,26.12a.48.48,0,0,0,0-.67,3.83,3.83,0,0,0-4.84-.78A3.74,3.74,0,0,0,30.35,27.06Zm-11.28-.58-.7-.16A4.41,4.41,0,0,0,16,26.27c-.49.17-.61.49-.36.94a2.91,2.91,0,0,0,.69.79,12.37,12.37,0,0,0,1.84,1.14,2.16,2.16,0,0,0-1.41,1.78c0,.37,0,.42.36.29a26.13,26.13,0,0,1,3.17-1.09.57.57,0,0,0,.43-.48,9.72,9.72,0,0,1,.69-1.83.59.59,0,0,0,0-.64c-.47-.79-.92-1.59-1.38-2.39-.15-.25-.25-.75-.45-.71s-.47.51-.6.85a1,1,0,0,0,0,.73C19,25.89,19,26.15,19.07,26.49Z"/><path class="cls-2" d="M38.06,12.56c-.77.54-1.53,1.06-2.23,1.65A16.68,16.68,0,0,0,32.44,18c-.13.2-.21.33-.5.19a8.22,8.22,0,0,0-11.35,5,.66.66,0,0,1-.08.11,3.43,3.43,0,0,1-.45-.87c-.07-.14-.11-.27-.31-.13a4.32,4.32,0,0,0-2,2.45c-.08.32-.23.35-.49.31a3.72,3.72,0,0,0-1.69.16,1.67,1.67,0,0,0-1,2.59,4.37,4.37,0,0,0,1.22,1.31c.1.08.31.1.2.33a.4.4,0,0,1-.41.28c-.7,0-1.41,0-2.11,0-.36,0-.36-.25-.41-.46a15.37,15.37,0,0,1,1.08-10.85A15.47,15.47,0,0,1,27,9.43a15.27,15.27,0,0,1,10.67,2.86C37.83,12.37,37.93,12.46,38.06,12.56Z"/><path class="cls-3" d="M44.43,25.23a17.77,17.77,0,0,1-.64,4.46c-.08.3-.2.4-.51.37-.55,0-1.1,0-1.66,0-.24,0-.29-.07-.24-.33a10.07,10.07,0,0,0-.06-5,3.13,3.13,0,0,0-.58-1.16,1.19,1.19,0,0,0-1.85-.15A4.83,4.83,0,0,0,38,24.51c-.12.19-.21.21-.37,0a4,4,0,0,0-1-.85c-.19-.11-.22-.29-.27-.46a8.07,8.07,0,0,0-2.66-4c-.21-.17-.36-.27-.13-.58A15.7,15.7,0,0,1,39,13.93a.55.55,0,0,1,.78.12A16.07,16.07,0,0,1,44.43,25.23Z"/><path class="cls-4" d="M37.73,29.42A12.93,12.93,0,0,0,40,24.93l.06-.2c1,2,.65,6.76-2.78,10.09a10.6,10.6,0,0,1-11.92,2.05,12.22,12.22,0,0,0,2.23-.24,21.83,21.83,0,0,0,6.32-2.49l.23-.12a.44.44,0,0,0,.37-.19l.06-.08-.1,0A.78.78,0,0,0,34,34l-.13.07a23.37,23.37,0,0,1-4.1,1.29,14.13,14.13,0,0,1-3.6.32,25,25,0,0,0,7.54-4A26.72,26.72,0,0,0,39.05,25a15.91,15.91,0,0,1-1.4,4.31s-.14.05-.09.12S37.68,29.48,37.73,29.42ZM35,33.57l0,0,0,0,0,0Zm-.22.07,0,0,0,0,0,0Z"/><path class="cls-5" d="M34.87,23.06a5,5,0,0,0-3.44.68,4.69,4.69,0,0,0-2.06,2.63c-.12.38-.23.4-.58.25A10.86,10.86,0,0,0,25,25.54a3.33,3.33,0,0,0-2.49.72c-.21.18-.29.07-.42-.09a2.14,2.14,0,0,1-.4-2,6.93,6.93,0,0,1,13.1-1.46Zm-10.6-.11a1.64,1.64,0,0,0,1.32-1c.1-.35-.08-.58-.46-.58a1.69,1.69,0,0,0-1.3,1C23.7,22.7,23.87,22.95,24.27,22.95Zm4.22-.9c-.36,0-.85.46-.82.75s.18.26.36.25c.34,0,.81-.42.82-.7S28.7,22,28.49,22.05Z"/><path class="cls-6" d="M25.82,29.88a11.65,11.65,0,0,0-1.16,3.55c-.09.47-.28.45-.61.29a8.72,8.72,0,0,1-1.47-.86,2.26,2.26,0,0,1-.92-2.59,10.81,10.81,0,0,1,.73-2c.81-1.62,1.62-1.74,3.11-1.5a16.15,16.15,0,0,1,5.05,2c.81.44,1.58.94,2.34,1.46.22.15.38.27.09.52a18.51,18.51,0,0,1-3.93,2.5c-.41.2-.33-.13-.3-.32.1-.64.22-1.28.34-1.92a.55.55,0,0,0,0-.4,6.11,6.11,0,0,0-.82,2.14A1.49,1.49,0,0,1,27,34.12c-.43.1-.79.43-1.29.23-.3-.12-.43-.24-.4-.57.1-1.08.25-2.15.45-3.22,0-.21.06-.43.09-.64.05,0,.1-.12,0-.15S25.84,29.83,25.82,29.88Zm3.41.52,0,0,0,0,0,.05Z"/><path class="cls-7" d="M30.35,27.06a3.74,3.74,0,0,1,1.74-2.4,3.83,3.83,0,0,1,4.84.78.48.48,0,0,1,0,.67,25.23,25.23,0,0,1-2.51,3.26c-.23.25-.39.32-.7.09a22.23,22.23,0,0,0-3.11-1.93C30.47,27.43,30.3,27.33,30.35,27.06Z"/><path class="cls-8" d="M19.07,26.49c-.08-.34-.11-.6-.2-.85a1,1,0,0,1,0-.73c.13-.34.25-.79.6-.85s.3.46.45.71c.46.79.91,1.6,1.38,2.39a.59.59,0,0,1,0,.64,9.72,9.72,0,0,0-.69,1.83.57.57,0,0,1-.43.48,26.13,26.13,0,0,0-3.17,1.09c-.31.13-.39.08-.36-.29a2.16,2.16,0,0,1,1.41-1.78A12.37,12.37,0,0,1,16.29,28a2.91,2.91,0,0,1-.69-.79c-.26-.45-.14-.76.36-.94a4.41,4.41,0,0,1,2.41.05Z"/><path class="cls-9" d="M34.5,33.83a.44.44,0,0,1-.37.19H34a.78.78,0,0,1,.49-.22Z"/><path class="cls-1" d="M37.73,29.42c0,.06-.12.1-.16,0s.05-.09.09-.12Z"/><path class="cls-1" d="M34,34h.16l-.23.12-.06-.07Z"/><path class="cls-9" d="M35,33.57l0,0,0,0,0,0Z"/><path class="cls-9" d="M34.74,33.64l0,0,0,0,0,0Z"/><path class="cls-9" d="M34.46,33.79l.1,0-.06.08Z"/><path class="cls-10" d="M24.27,22.95c-.4,0-.57-.24-.45-.62a1.69,1.69,0,0,1,1.3-1c.38,0,.56.23.46.58A1.64,1.64,0,0,1,24.27,22.95Z"/><path class="cls-11" d="M28.49,22.05c.21,0,.37.05.36.3s-.48.69-.82.7c-.19,0-.34,0-.36-.25S28.14,22.06,28.49,22.05Z"/><path class="cls-1" d="M25.82,29.88s0-.15.08-.11,0,.11,0,.15Z"/><path class="cls-1" d="M29.23,30.4v0l0-.05,0,0Z"/><path class="cls-1" d="M50.56,13.22h4.21v6.89H61V13.22h4.21V30.44H61V23.7H54.78v6.74H50.56Z"/><path class="cls-1" d="M73.18,17.75c3.93,0,7.06,2.63,7.06,6.53s-3.13,6.45-7,6.45-7-2.58-7-6.45S69.3,17.75,73.18,17.75Zm0,9.51a2.81,2.81,0,0,0,2.82-3,2.83,2.83,0,1,0-5.64,0A2.81,2.81,0,0,0,73.21,27.26Z"/><path class="cls-1" d="M81,18h4v2.1a6.57,6.57,0,0,1,0,.77h0A4.31,4.31,0,0,1,89,17.82a3,3,0,0,1,.48,0V22a3.91,3.91,0,0,0-.84-.07c-2.31,0-3.42,1.47-3.42,3.73v4.82H81Z"/><path class="cls-1" d="M91.93,21.51H90.34V18.26h1.71V14.69h4v3.56h2.6v3.25H96.1v3.81c0,1.4,1.42,1.59,2.22,1.59a5.28,5.28,0,0,0,.55,0v3.61c-.31,0-.65.07-1.13.07-2,0-5.8-.53-5.8-4.7Z"/><path class="cls-1" d="M105.52,25.07a6.94,6.94,0,0,0,4.14,1.78c1.18,0,1.78-.53,1.78-1.2,0-2.43-7.61-2-7.61-7.44,0-3.18,2.63-5.27,6.24-5.27a8.13,8.13,0,0,1,5.39,2l-1.78,3.44a6.22,6.22,0,0,0-3.81-1.52c-1.28,0-1.83.53-1.83,1.23,0,2.46,7.61,1.88,7.61,7.32,0,2.89-2.14,5.37-6.12,5.37a8.92,8.92,0,0,1-6.24-2.46Z"/><path class="cls-1" d="M122.65,17.75c3.66,0,5.73,2.55,5.73,6a11.79,11.79,0,0,1-.1,1.3h-7.83a2.77,2.77,0,0,0,2.89,2.22A6.38,6.38,0,0,0,126.77,26l1.54,2.91a8.44,8.44,0,0,1-5.3,1.81,6.43,6.43,0,0,1-6.82-6.5A6.17,6.17,0,0,1,122.65,17.75Zm1.61,4.91a1.72,1.72,0,0,0-1.71-1.85,2,2,0,0,0-2,1.85Z"/><path class="cls-1" d="M129.65,18h4v1.08a6.55,6.55,0,0,1,0,.77h0a4.37,4.37,0,0,1,3.95-2.14c2.51,0,4.46,1.16,4.46,4.65v8h-4.17V23.17c0-1.16-.46-1.64-1.37-1.64-1.85,0-2.7,1.54-2.7,3.3v5.61h-4.17Z"/><path class="cls-1" d="M148.84,17.75a4.6,4.6,0,0,1,3.25,1h0s0-.24,0-.55v-5h4.17V30.44h-3.9v-.82c0-.39,0-.7,0-.7h0a4.19,4.19,0,0,1-3.59,1.81c-3.37,0-5.59-2.65-5.59-6.5S145.54,17.75,148.84,17.75Zm1,9.54c1.25,0,2.43-.91,2.43-3.06,0-1.49-.8-3-2.43-3-1.3,0-2.43,1.06-2.43,3S148.35,27.29,149.8,27.29Z"/><text class="cls-12" transform="translate(123.41 37.99)">.<tspan class="cls-13" x="2.32" y="0">c</tspan><tspan x="7.4" y="0">om.b</tspan><tspan class="cls-14" x="30.13" y="0">r</tspan></text></svg>